<svg id="Layer_1" data-name="Layer 1" xmlns="http://www.w3.org/2000/svg" xmlns:xlink="http://www.w3.org/1999/xlink" viewBox="0 0 500 500"><defs><style>.cls-1,.cls-3,.cls-5,.cls-6,.cls-7,.cls-8{fill:none;}.cls-2{clip-path:url(#clip-path);}.cls-3{stroke:#6dcce1;}.cls-3,.cls-5,.cls-6,.cls-7,.cls-8{stroke-miterlimit:10;}.cls-4{clip-path:url(#clip-path-2);}.cls-5{stroke:#ed222b;}.cls-6{stroke:#8864ab;}.cls-7{stroke:#eaa130;}.cls-8{stroke:#5e55a4;}</style><clipPath id="clip-path"><rect class="cls-1" x="-520" width="500" height="500"/></clipPath><clipPath id="clip-path-2"><rect class="cls-1" width="500" height="500"/></clipPath></defs><title>1</title><g class="cls-2"><path class="cls-3" d="M-445,509.4s-42.84-46.19,94.64-95.3c0,0,144.71-29.15,139.18-140.14,0,0,2-132.45,213.75-191.82"/></g><g class="cls-4"><path class="cls-5" d="M321.72,498s-21.41-28.18,36.4-68.43c0,0,62.09-27.45,53.53-100.63,0,0-6.43-87.82,83.5-139"/><path class="cls-6" d="M296.44,504.83s-25.57-31.06,43.47-75.42c0,0,74.16-30.25,63.93-110.92,0,0-7.67-96.8,99.72-153.26"/><path class="cls-7" d="M347.42,504.83s-19.54-28.18,33.22-68.43c0,0,56.66-27.44,48.85-100.63,0,0-5.86-87.82,76.21-139"/><path class="cls-6" d="M368.1,509.35S351.12,486,397,452.62c0,0,49.26-22.76,42.47-83.44,0,0-5.1-72.82,66.25-115.29"/><path class="cls-5" d="M391.34,506.29s-14.08-18.86,23.92-45.81c0,0,40.81-18.37,35.18-67.36,0,0-4.22-58.79,54.88-93.08"/><path class="cls-5" d="M414.66,510.4S404,496.1,434.52,477c0,0,32.51-12.71,29.2-49.15,0,0-2-43.67,45.28-67.78"/><path class="cls-6" d="M255,503.72s-26.71-34.38,52.82-77.63c0,0,84.42-28,77.68-114.16,0,0-3-103.15,120-157.11"/><path class="cls-5" d="M204,503.66s-32.2-36.31,62.78-81.76c0,0,100.93-29.34,92.32-120.23,0,0-4.19-108.78,142.78-165.44"/><path class="cls-7" d="M170.06,502.94s-35.34-38,68.46-85.23c0,0,110.36-30.41,100.67-125.33,0,0-4.89-113.6,155.76-172.43"/><path class="cls-3" d="M227.5,501s-30.19-35.06,58.61-78.77c0,0,94.39-28.17,86.2-115.83,0,0-4.08-104.92,133.35-159.38"/><path class="cls-8" d="M125.56,504.1s-36.7-42.36,82.51-88.3c0,0,125.3-27.58,121.33-129.85,0,0,2.71-122.1,186.17-177.86"/><path class="cls-3" d="M75,509.4s-42.84-46.19,94.64-95.3c0,0,144.71-29.15,139.18-140.14,0,0,2-132.45,213.75-191.82"/><path class="cls-7" d="M68.32,503.57s-50.06-44,94.89-96.8c0,0,154.34-33.43,139.54-142.35,0,0-8.34-130.26,216.17-195.62"/><path class="cls-8" d="M55,510.52S12.22,458.34,152.49,400.7c0,0,147.31-35,143.31-161.5,0,0,4-151.11,219.77-221.34"/><path class="cls-7" d="M4.89,504.83S-56.67,458,109.55,391c0,0,178.54-45.64,153.91-167.36,0,0-18.47-146.06,240.1-231.27"/><path class="cls-5" d="M21.33,504s-60.2-45.45,102.35-110.37c0,0,174.6-44.27,150.52-162.3,0,0-18.07-141.65,234.8-224.27"/><path class="cls-3" d="M6.44,486.08s-55.62-44.5,96.29-109.61c0,0,162.93-44.8,141.61-161.18,0,0-15.51-139.73,220.63-222.9"/><path class="cls-7" d="M-.74,480.81s-58-41.37,89-112.32c0,0,159.23-51.42,130.87-165.18,0,0-24-137,205.66-229.53"/></g></svg>