<svg id="Layer_1" data-name="Layer 1" xmlns="http://www.w3.org/2000/svg" viewBox="0 0 500 500"><defs><style>.cls-1,.cls-2,.cls-3,.cls-4,.cls-5{fill:none;}.cls-1{stroke:#ed222b;}.cls-1,.cls-2,.cls-3,.cls-4{stroke-miterlimit:10;}.cls-2{stroke:#8864ab;}.cls-3{stroke:#eaa130;}.cls-4{stroke:#6dcce1;}</style></defs><title>1</title><path class="cls-1" d="M321.72,498s-21.41-28.18,36.4-68.43c0,0,62.09-27.45,53.53-100.63,0,0-6.43-87.82,83.5-139"/><path class="cls-2" d="M296.44,504.83s-25.57-31.06,43.47-75.42c0,0,74.16-30.25,63.93-110.92,0,0-7.67-96.8,99.72-153.26"/><path class="cls-3" d="M347.42,504.83s-19.54-28.18,33.22-68.43c0,0,56.66-27.44,48.85-100.63,0,0-5.86-87.82,76.21-139"/><path class="cls-2" d="M368.1,509.35S351.12,486,397,452.62c0,0,49.26-22.76,42.47-83.44,0,0-5.1-72.82,66.25-115.29"/><path class="cls-1" d="M391.34,506.29s-14.08-18.86,23.92-45.81c0,0,40.81-18.37,35.18-67.36,0,0-4.22-58.79,54.88-93.08"/><path class="cls-1" d="M414.66,510.4S404,496.1,434.52,477c0,0,32.51-12.71,29.2-49.15,0,0-2-43.67,45.28-67.78"/><path class="cls-2" d="M255,503.72s-26.71-34.38,52.82-77.63c0,0,84.42-28,77.68-114.16,0,0-3-103.15,120-157.11"/><path class="cls-1" d="M204,503.66s-32.2-36.31,62.78-81.76c0,0,100.93-29.34,92.32-120.23,0,0-4.19-108.78,142.78-165.44"/><path class="cls-3" d="M170.06,502.94s-35.34-38,68.46-85.23c0,0,110.36-30.41,100.67-125.33,0,0-4.89-113.6,155.76-172.43"/><path class="cls-4" d="M227.5,501s-30.19-35.06,58.61-78.77c0,0,94.39-28.17,86.2-115.83,0,0-4.08-104.92,133.35-159.38"/><rect class="cls-5" width="500" height="500"/></svg>